<svg width="100" height="100" viewBox="0 0 100 100" fill="none" xmlns="http://www.w3.org/2000/svg">
<rect width="100" height="100" fill="white"/>
<path d="M30.2557 38.8463L25 36V63L30.2557 60.1573C30.7859 59.8692 31.2262 59.4549 31.5324 58.9559C31.8385 58.4569 31.9998 57.8909 32 57.3147V41.6853C31.9999 41.1096 31.8386 40.544 31.5324 40.0456C31.2262 39.5472 30.7859 39.1335 30.2557 38.8463V38.8463Z" fill="#B0B4B5"/>
<path d="M49 21L27 33.8221L31.7175 36.5795C32.1922 36.8547 32.73 36.9995 33.2774 36.9995C33.8248 36.9995 34.3627 36.8547 34.8374 36.5795L49 28.3072L63.166 36.5795C63.6406 36.855 64.1785 37 64.726 37C65.2734 37 65.8113 36.855 66.286 36.5795L71 33.8221L49 21Z" fill="#353737"/>
<path d="M69.0296 38.7774C68.5274 39.0589 68.1105 39.463 67.8204 39.9491C67.5303 40.4353 67.3772 40.9865 67.3764 41.5478V61.2658L52.6568 69.6609C52.1538 69.9417 51.7359 70.3455 51.4451 70.8317C51.1543 71.318 51.0008 71.8696 51 72.4312V78L74 64.9806V36L69.0296 38.7774Z" fill="#E4282B"/>
<path d="M48.3867 69.7878L35.1593 62.4178C34.6644 62.144 34.1039 62 33.5335 62C32.9631 62 32.4026 62.144 31.9077 62.4178L27 65.1678L50 78L49.9323 72.5413C49.9492 71.9915 49.8151 71.4472 49.5436 70.9636C49.2722 70.4801 48.873 70.0744 48.3867 69.7878V69.7878Z" fill="#A32322"/>
</svg>
