<svg xmlns="http://www.w3.org/2000/svg" xmlns:xlink="http://www.w3.org/1999/xlink" viewBox="0 0 127.81 28.56"><defs><style>.cls-1{fill:none;}.cls-2{clip-path:url(#clip-path);}.cls-3{fill:#16202c;}.cls-4{fill:#52bfd0;}</style><clipPath id="clip-path" transform="translate(-15.44 -13.31)"><rect class="cls-1" width="158.69" height="55.18"/></clipPath></defs><g id="Calque_2" data-name="Calque 2"><g id="Calque_1-2" data-name="Calque 1"><g class="cls-2"><path class="cls-3" d="M60.15,28.36a7.21,7.21,0,0,1-2,.27c-3.33,0-6-2.25-6-5.68a5.71,5.71,0,0,1,6-5.67,6.11,6.11,0,0,1,4.62,2l-.87.92a5.13,5.13,0,0,0-3.78-1.66,4.41,4.41,0,1,0,0,8.8,7.29,7.29,0,0,0,1.32-.13c.95-.21,2.24-.8,2.24-1.95V23.75H58V22.47h5v2.89c0,1.59-1.47,2.59-2.83,3" transform="translate(-15.44 -13.31)"/><polygon class="cls-3" points="53.24 15.04 53.24 4.19 62.19 4.19 62.19 5.47 54.53 5.47 54.53 8.78 58.55 8.78 58.55 10.06 54.53 10.06 54.53 13.76 62.51 13.76 62.51 15.04 53.24 15.04"/><polygon class="cls-3" points="76.08 15.04 69 6.21 69 15.04 67.72 15.04 67.72 4.19 69 4.19 76.08 13.14 76.08 4.19 77.37 4.19 77.37 15.04 76.08 15.04"/><polygon class="cls-3" points="86.4 10.04 86.4 15.04 85.12 15.04 85.12 10.04 80.51 4.19 82.17 4.19 85.79 8.78 89.41 4.19 91.06 4.19 86.4 10.04"/><path class="cls-3" d="M115,28.63a6.89,6.89,0,0,1-5.51-2.33l.91-.91A5.69,5.69,0,0,0,115,27.34c1.34,0,3.87-.39,3.87-2.18,0-1.31-1.36-1.83-2.46-1.84l-2.3,0a4.59,4.59,0,0,1-2.68-.6,2.56,2.56,0,0,1-1.12-2.15c0-2.4,2.7-3.27,4.68-3.27a7.17,7.17,0,0,1,4.59,1.6l-.8,1a6.09,6.09,0,0,0-3.84-1.3c-1.16,0-3.34.46-3.34,2a1.29,1.29,0,0,0,.64,1.12,4.17,4.17,0,0,0,2.21.35H116a5.79,5.79,0,0,1,2.22.37,3.09,3.09,0,0,1,1.88,2.82c0,2.63-3,3.42-5.14,3.42" transform="translate(-15.44 -13.31)"/><rect class="cls-3" x="110.12" y="4.17" width="1.28" height="10.87"/><path class="cls-3" d="M136.85,17.5l-5.17,10.86h1.42l1.72-3.74h5.23l1.77,3.74h1.43L138.16,17.5Zm.64,1.56,2,4.3h-4Z" transform="translate(-15.44 -13.31)"/><path class="cls-3" d="M23.08,17.76a.45.45,0,0,1-.59.2.44.44,0,0,1-.2-.59.43.43,0,0,1,.58-.2.45.45,0,0,1,.21.59" transform="translate(-15.44 -13.31)"/><path class="cls-3" d="M36.58,16.57a.34.34,0,0,1-.45.15h0a.34.34,0,0,1-.16-.45.35.35,0,0,1,.46-.16.36.36,0,0,1,.15.46" transform="translate(-15.44 -13.31)"/><path class="cls-3" d="M39.11,29.85a.55.55,0,1,1-1-.48h0a.55.55,0,0,1,.73-.25h0a.55.55,0,0,1,.25.73h0" transform="translate(-15.44 -13.31)"/><path class="cls-3" d="M35.51,20.34a.55.55,0,0,1-.73.25h0a.54.54,0,0,1-.25-.73h0a.55.55,0,1,1,1,.48h0" transform="translate(-15.44 -13.31)"/><path class="cls-3" d="M31.07,18.63a.45.45,0,1,1-.21-.6h0a.44.44,0,0,1,.21.6" transform="translate(-15.44 -13.31)"/><path class="cls-3" d="M35.36,18.29a.33.33,0,0,1-.44.16h0a.34.34,0,0,1,.3-.61.32.32,0,0,1,.15.45h0" transform="translate(-15.44 -13.31)"/><path class="cls-3" d="M24,20.05a.48.48,0,1,1-.86-.42h0a.48.48,0,0,1,.86.42" transform="translate(-15.44 -13.31)"/><path class="cls-3" d="M29,16.38a.34.34,0,0,1-.45.15.34.34,0,0,1-.16-.45.35.35,0,0,1,.46-.16.36.36,0,0,1,.15.46" transform="translate(-15.44 -13.31)"/><path class="cls-3" d="M21.33,16.58a.32.32,0,0,1-.43.14.31.31,0,0,1-.14-.42.3.3,0,0,1,.42-.14.31.31,0,0,1,.15.42h0" transform="translate(-15.44 -13.31)"/><path class="cls-3" d="M23.61,16.05a.3.3,0,0,1-.42.14.31.31,0,1,1,.28-.56.31.31,0,0,1,.14.42" transform="translate(-15.44 -13.31)"/><path class="cls-3" d="M25.07,14.51a.32.32,0,1,1-.15-.42.31.31,0,0,1,.15.42" transform="translate(-15.44 -13.31)"/><path class="cls-3" d="M21.89,20a.31.31,0,0,1-.42.15.32.32,0,0,1-.15-.42h0a.32.32,0,0,1,.43-.15.31.31,0,0,1,.14.42h0" transform="translate(-15.44 -13.31)"/><path class="cls-3" d="M21.39,18.64a.45.45,0,0,1-.8-.39.44.44,0,0,1,.59-.2.45.45,0,0,1,.21.59" transform="translate(-15.44 -13.31)"/><path class="cls-3" d="M20.75,21.48a.71.71,0,0,1-.95.33h0a.72.72,0,0,1-.33-.95h0a.71.71,0,0,1,1-.33h0a.7.7,0,0,1,.33.95" transform="translate(-15.44 -13.31)"/><path class="cls-3" d="M17.7,24a.72.72,0,0,1-1,.33h0a.72.72,0,0,1-.33-.95h0a.73.73,0,0,1,1-.33h0a.73.73,0,0,1,.33,1" transform="translate(-15.44 -13.31)"/><path class="cls-3" d="M40.37,21a.34.34,0,0,1-.45.15h0a.33.33,0,0,1-.15-.44h0a.33.33,0,0,1,.6.29" transform="translate(-15.44 -13.31)"/><path class="cls-3" d="M39.32,31.91a.33.33,0,0,1-.44.16h0a.34.34,0,0,1-.16-.45.34.34,0,0,1,.45-.15.33.33,0,0,1,.15.44" transform="translate(-15.44 -13.31)"/><path class="cls-3" d="M38.31,33.56a.34.34,0,0,1-.45.15.33.33,0,0,1-.15-.44h0a.33.33,0,0,1,.44-.15h0a.32.32,0,0,1,.16.44" transform="translate(-15.44 -13.31)"/><path class="cls-3" d="M19,25.58a.55.55,0,0,1-.73.25h0a.55.55,0,0,1-.25-.73h0a.54.54,0,0,1,.72-.25h0a.55.55,0,0,1,.25.73h0" transform="translate(-15.44 -13.31)"/><path class="cls-3" d="M20.35,23.65a.53.53,0,0,1-.72.25h0a.54.54,0,0,1-.26-.73.55.55,0,0,1,.73-.25h0a.55.55,0,0,1,.26.73h0" transform="translate(-15.44 -13.31)"/><path class="cls-3" d="M18.7,22.25a.54.54,0,0,1-.72.25h0a.54.54,0,0,1-.26-.73h0a.55.55,0,0,1,1,.48h0" transform="translate(-15.44 -13.31)"/><path class="cls-3" d="M19.39,19.7a.54.54,0,0,1-.73.25h0a.55.55,0,0,1-.25-.73h0a.55.55,0,1,1,1,.48" transform="translate(-15.44 -13.31)"/><path class="cls-3" d="M32.64,16.5a.54.54,0,0,1-.73.25h0a.55.55,0,1,1,.48-1h0a.54.54,0,0,1,.25.73h0" transform="translate(-15.44 -13.31)"/><path class="cls-3" d="M25.66,17.88a.53.53,0,0,1-.72.26h0a.55.55,0,0,1-.25-.73.54.54,0,0,1,.73-.25h0a.53.53,0,0,1,.25.72h0" transform="translate(-15.44 -13.31)"/><path class="cls-3" d="M27.17,16.2a.55.55,0,0,1-.73.25h0a.55.55,0,0,1-.26-.73h0a.55.55,0,0,1,.73-.25h0a.55.55,0,0,1,.26.73h0" transform="translate(-15.44 -13.31)"/><path class="cls-3" d="M30.43,14.58a.88.88,0,1,1-1.59-.77h0a.88.88,0,0,1,1.59.77" transform="translate(-15.44 -13.31)"/><path class="cls-3" d="M39,18.59a.45.45,0,0,1-.6.21.46.46,0,0,1-.21-.61h0a.46.46,0,0,1,.6-.21h0a.44.44,0,0,1,.2.6" transform="translate(-15.44 -13.31)"/><path class="cls-3" d="M40.77,23.24a.45.45,0,0,1-.6.21h0a.45.45,0,0,1-.21-.61h0a.46.46,0,0,1,.6-.21.45.45,0,0,1,.21.61" transform="translate(-15.44 -13.31)"/><path class="cls-3" d="M42.59,24a.44.44,0,0,1-.6.21h0a.44.44,0,0,1-.21-.6h0a.44.44,0,0,1,.6-.21h0a.44.44,0,0,1,.21.6" transform="translate(-15.44 -13.31)"/><path class="cls-3" d="M40.91,34.94a.45.45,0,1,1-.21-.6.44.44,0,0,1,.21.6" transform="translate(-15.44 -13.31)"/><path class="cls-3" d="M42.22,29.38a.44.44,0,0,1-.6.21h0a.45.45,0,1,1,.39-.81h0a.44.44,0,0,1,.21.6" transform="translate(-15.44 -13.31)"/><path class="cls-3" d="M40.4,25.43a.45.45,0,1,1-.21-.6h0a.44.44,0,0,1,.21.6" transform="translate(-15.44 -13.31)"/><path class="cls-3" d="M39.15,26.94a.45.45,0,1,1-.81-.4h0a.45.45,0,0,1,.6-.21h0a.46.46,0,0,1,.2.61" transform="translate(-15.44 -13.31)"/><path class="cls-3" d="M38.37,35.48a.45.45,0,0,1-.82-.39h0a.45.45,0,0,1,.61-.21h0a.45.45,0,0,1,.21.6" transform="translate(-15.44 -13.31)"/><path class="cls-3" d="M34.93,15.63a.55.55,0,0,1-.73.25h0a.55.55,0,0,1-.25-.73h0a.55.55,0,1,1,1,.48h0" transform="translate(-15.44 -13.31)"/><path class="cls-3" d="M38.28,21.73a.54.54,0,0,1-.72.25.54.54,0,1,1,.72-.25h0" transform="translate(-15.44 -13.31)"/><path class="cls-3" d="M41.38,31a.67.67,0,0,1-.91.31.68.68,0,0,1-.32-.91.69.69,0,0,1,.91-.31.68.68,0,0,1,.32.91h0" transform="translate(-15.44 -13.31)"/><path class="cls-3" d="M40,36.27a.54.54,0,0,1-.72.26h0A.55.55,0,0,1,39,35.8a.55.55,0,0,1,.73-.26h0a.55.55,0,0,1,.26.73h0" transform="translate(-15.44 -13.31)"/><path class="cls-3" d="M40.67,33.2a.54.54,0,0,1-.72.25h0a.55.55,0,0,1-.25-.73h0a.55.55,0,0,1,.73-.25h0a.55.55,0,0,1,.25.73h0" transform="translate(-15.44 -13.31)"/><path class="cls-3" d="M43.21,26.59a.55.55,0,0,1-.73.25h0a.55.55,0,0,1-.25-.73h0a.55.55,0,0,1,.73-.25h0a.55.55,0,0,1,.25.73" transform="translate(-15.44 -13.31)"/><path class="cls-3" d="M41.27,27.43a.54.54,0,1,1-1-.47h0A.55.55,0,0,1,41,26.7h0a.55.55,0,0,1,.25.73h0" transform="translate(-15.44 -13.31)"/><path class="cls-3" d="M22.84,40.25a13.76,13.76,0,0,1-6.13-6.48,14,14,0,0,1-1-8.69,3.62,3.62,0,0,1,2.88,3.37A10.74,10.74,0,0,0,35,37.1a3.64,3.64,0,0,1,4.4.49,14,14,0,0,1-7.73,4.08,13.71,13.71,0,0,1-8.8-1.42" transform="translate(-15.44 -13.31)"/><polygon class="cls-3" points="42.82 20.34 42.82 23.17 42.44 23.17 42.44 20.34 41.27 20.34 41.27 19.96 43.99 19.96 43.99 20.34 42.82 20.34"/><polygon class="cls-3" points="45.7 23.17 45.7 19.96 48.34 19.96 48.34 20.34 46.08 20.34 46.08 21.32 47.27 21.32 47.27 21.7 46.08 21.7 46.08 22.79 48.43 22.79 48.43 23.17 45.7 23.17"/><path class="cls-3" d="M67,36.56a1.68,1.68,0,0,1-1.78-1.68,1.66,1.66,0,0,1,1.64-1.68H67a2.11,2.11,0,0,1,1.55.64l-.27.26a1.87,1.87,0,0,0-1.3-.53,1.31,1.31,0,0,0-1.33,1.29h0a1.33,1.33,0,0,0,1.42,1.32,1.64,1.64,0,0,0,1.27-.55l.26.28a2,2,0,0,1-1.55.64" transform="translate(-15.44 -13.31)"/><polygon class="cls-3" points="57.32 23.17 57.32 21.68 55.26 21.68 55.26 23.17 54.88 23.17 54.88 19.96 55.26 19.96 55.26 21.31 57.32 21.31 57.32 19.96 57.7 19.96 57.7 23.17 57.32 23.17"/><polygon class="cls-3" points="62.25 23.17 60.16 20.56 60.16 23.17 59.78 23.17 59.78 19.96 60.16 19.96 62.25 22.61 62.25 19.96 62.63 19.96 62.63 23.17 62.25 23.17"/><path class="cls-3" d="M81.65,36.56a1.69,1.69,0,0,1-1.72-1.65h0a1.71,1.71,0,0,1,1.74-1.69h0a1.66,1.66,0,0,1,1.71,1.62v0a1.69,1.69,0,0,1-1.68,1.69h-.06m0-3a1.31,1.31,0,0,0-1.36,1.28v0a1.32,1.32,0,0,0,1.34,1.29h0A1.31,1.31,0,0,0,83,34.93v0a1.28,1.28,0,0,0-1.28-1.29h0" transform="translate(-15.44 -13.31)"/><polygon class="cls-3" points="69.83 23.17 69.83 19.96 70.21 19.96 70.21 22.79 72.23 22.79 72.23 23.17 69.83 23.17"/><path class="cls-3" d="M90.63,36.56a1.67,1.67,0,0,1-1.71-1.65h0a1.72,1.72,0,0,1,1.74-1.69h0a1.66,1.66,0,0,1,1.71,1.62v.05a1.69,1.69,0,0,1-1.68,1.69h-.06m0-3a1.31,1.31,0,0,0-1.36,1.28v0a1.31,1.31,0,0,0,1.33,1.29h0A1.31,1.31,0,0,0,92,34.93v0a1.28,1.28,0,0,0-1.28-1.29h0" transform="translate(-15.44 -13.31)"/><path class="cls-3" d="M96.42,36.48a1.68,1.68,0,0,1-.59.08,1.67,1.67,0,1,1,0-3.34,1.79,1.79,0,0,1,1.36.59l-.25.27a1.55,1.55,0,0,0-1.12-.49,1.32,1.32,0,0,0-1.39,1.24v.06a1.32,1.32,0,0,0,1.4,1.3,2.58,2.58,0,0,0,.39,0c.28-.06.66-.24.66-.58v-.44H95.77v-.38h1.49v.85c0,.47-.44.76-.84.88" transform="translate(-15.44 -13.31)"/><rect class="cls-3" x="83.66" y="19.96" width="0.38" height="3.21"/><polygon class="cls-3" points="86.11 23.17 86.11 19.96 88.75 19.96 88.75 20.34 86.49 20.34 86.49 21.32 87.68 21.32 87.68 21.7 86.49 21.7 86.49 22.79 88.84 22.79 88.84 23.17 86.11 23.17"/><path class="cls-3" d="M107.29,36.56a2,2,0,0,1-1.62-.69l.27-.26a1.63,1.63,0,0,0,1.34.57c.4,0,1.15-.12,1.15-.64S108,35,107.7,35H107a1.38,1.38,0,0,1-.79-.18.76.76,0,0,1-.33-.64c0-.7.8-1,1.38-1a2.12,2.12,0,0,1,1.36.47l-.24.3a1.78,1.78,0,0,0-1.13-.39c-.34,0-1,.14-1,.58a.39.39,0,0,0,.19.34,1.31,1.31,0,0,0,.65.1h.48a1.62,1.62,0,0,1,.65.11.92.92,0,0,1,.56.83c0,.78-.89,1-1.52,1" transform="translate(-15.44 -13.31)"/><polygon class="cls-3" points="39.09 23.47 39.03 23.44 37.22 21.63 37.22 21.51 39.03 19.7 39.09 19.68 39.15 19.7 39.18 19.76 39.15 19.82 37.41 21.57 39.15 23.31 39.15 23.44 39.09 23.47"/><path class="cls-4" d="M33.83,30.49a5.15,5.15,0,1,1-2.14-7,5.15,5.15,0,0,1,2.14,7" transform="translate(-15.44 -13.31)"/><polygon class="cls-3" points="97.05 23.25 96.77 23.25 98.67 19.96 98.96 19.96 97.05 23.25"/><polygon class="cls-3" points="99.3 23.47 99.24 23.44 99.21 23.38 99.24 23.32 100.98 21.57 99.24 19.83 99.24 19.7 99.3 19.68 99.36 19.7 101.17 21.51 101.17 21.63 99.36 23.44 99.3 23.47"/></g></g></g></svg>